<mxfile host="app.diagrams.net" agent="Mozilla/5.0 (Windows NT 10.0; Win64; x64; rv:126.0) Gecko/20100101 Firefox/126.0" version="24.8.6">
  <diagram id="C5RBs43oDa-KdzZeNtuy" name="Page-1">
    <mxGraphModel dx="1434" dy="774" grid="1" gridSize="10" guides="1" tooltips="1" connect="1" arrows="1" fold="1" page="1" pageScale="1" pageWidth="827" pageHeight="1169" math="0" shadow="0">
      <root>
        <mxCell id="WIyWlLk6GJQsqaUBKTNV-0" />
        <mxCell id="WIyWlLk6GJQsqaUBKTNV-1" parent="WIyWlLk6GJQsqaUBKTNV-0" />
        <mxCell id="frEjWSfTX_FWlfSujDzB-0" value="Start game initialization process" style="ellipse;whiteSpace=wrap;html=1;" vertex="1" parent="WIyWlLk6GJQsqaUBKTNV-1">
          <mxGeometry x="330" width="120" height="80" as="geometry" />
        </mxCell>
        <mxCell id="frEjWSfTX_FWlfSujDzB-1" value="" style="endArrow=classic;html=1;rounded=0;" edge="1" parent="WIyWlLk6GJQsqaUBKTNV-1">
          <mxGeometry width="50" height="50" relative="1" as="geometry">
            <mxPoint x="389.5" y="90" as="sourcePoint" />
            <mxPoint x="390" y="120" as="targetPoint" />
            <Array as="points" />
          </mxGeometry>
        </mxCell>
        <mxCell id="frEjWSfTX_FWlfSujDzB-4" value="" style="edgeStyle=orthogonalEdgeStyle;rounded=0;orthogonalLoop=1;jettySize=auto;html=1;" edge="1" parent="WIyWlLk6GJQsqaUBKTNV-1" source="frEjWSfTX_FWlfSujDzB-2" target="frEjWSfTX_FWlfSujDzB-3">
          <mxGeometry relative="1" as="geometry" />
        </mxCell>
        <mxCell id="frEjWSfTX_FWlfSujDzB-2" value="Initialize game" style="rounded=0;whiteSpace=wrap;html=1;" vertex="1" parent="WIyWlLk6GJQsqaUBKTNV-1">
          <mxGeometry x="330" y="120" width="120" height="60" as="geometry" />
        </mxCell>
        <mxCell id="frEjWSfTX_FWlfSujDzB-7" value="" style="edgeStyle=orthogonalEdgeStyle;rounded=0;orthogonalLoop=1;jettySize=auto;html=1;" edge="1" parent="WIyWlLk6GJQsqaUBKTNV-1" source="frEjWSfTX_FWlfSujDzB-3" target="frEjWSfTX_FWlfSujDzB-6">
          <mxGeometry relative="1" as="geometry" />
        </mxCell>
        <mxCell id="frEjWSfTX_FWlfSujDzB-9" value="" style="edgeStyle=orthogonalEdgeStyle;rounded=0;orthogonalLoop=1;jettySize=auto;html=1;" edge="1" parent="WIyWlLk6GJQsqaUBKTNV-1" source="frEjWSfTX_FWlfSujDzB-3" target="frEjWSfTX_FWlfSujDzB-8">
          <mxGeometry relative="1" as="geometry" />
        </mxCell>
        <mxCell id="frEjWSfTX_FWlfSujDzB-11" value="" style="edgeStyle=orthogonalEdgeStyle;rounded=0;orthogonalLoop=1;jettySize=auto;html=1;" edge="1" parent="WIyWlLk6GJQsqaUBKTNV-1" source="frEjWSfTX_FWlfSujDzB-3" target="frEjWSfTX_FWlfSujDzB-10">
          <mxGeometry relative="1" as="geometry">
            <Array as="points">
              <mxPoint x="390" y="270" />
              <mxPoint x="390" y="270" />
            </Array>
          </mxGeometry>
        </mxCell>
        <mxCell id="frEjWSfTX_FWlfSujDzB-3" value="Load game assets and settings" style="rounded=0;whiteSpace=wrap;html=1;" vertex="1" parent="WIyWlLk6GJQsqaUBKTNV-1">
          <mxGeometry x="330" y="210" width="120" height="60" as="geometry" />
        </mxCell>
        <mxCell id="frEjWSfTX_FWlfSujDzB-6" value="Define starting player position, lives, and score" style="rounded=0;whiteSpace=wrap;html=1;" vertex="1" parent="WIyWlLk6GJQsqaUBKTNV-1">
          <mxGeometry x="530" y="210" width="120" height="60" as="geometry" />
        </mxCell>
        <mxCell id="frEjWSfTX_FWlfSujDzB-8" value="Set currentLevel=1" style="rounded=0;whiteSpace=wrap;html=1;" vertex="1" parent="WIyWlLk6GJQsqaUBKTNV-1">
          <mxGeometry x="130" y="210" width="120" height="60" as="geometry" />
        </mxCell>
        <mxCell id="frEjWSfTX_FWlfSujDzB-13" value="" style="edgeStyle=orthogonalEdgeStyle;rounded=0;orthogonalLoop=1;jettySize=auto;html=1;" edge="1" parent="WIyWlLk6GJQsqaUBKTNV-1" source="frEjWSfTX_FWlfSujDzB-10" target="frEjWSfTX_FWlfSujDzB-12">
          <mxGeometry relative="1" as="geometry" />
        </mxCell>
        <mxCell id="frEjWSfTX_FWlfSujDzB-15" value="" style="edgeStyle=orthogonalEdgeStyle;rounded=0;orthogonalLoop=1;jettySize=auto;html=1;" edge="1" parent="WIyWlLk6GJQsqaUBKTNV-1" source="frEjWSfTX_FWlfSujDzB-10" target="frEjWSfTX_FWlfSujDzB-14">
          <mxGeometry relative="1" as="geometry" />
        </mxCell>
        <mxCell id="frEjWSfTX_FWlfSujDzB-10" value="If player lives &amp;gt; 0" style="rounded=0;whiteSpace=wrap;html=1;" vertex="1" parent="WIyWlLk6GJQsqaUBKTNV-1">
          <mxGeometry x="330" y="310" width="120" height="60" as="geometry" />
        </mxCell>
        <mxCell id="frEjWSfTX_FWlfSujDzB-12" value="No - Go to game over " style="rounded=0;whiteSpace=wrap;html=1;" vertex="1" parent="WIyWlLk6GJQsqaUBKTNV-1">
          <mxGeometry x="530" y="310" width="120" height="60" as="geometry" />
        </mxCell>
        <mxCell id="frEjWSfTX_FWlfSujDzB-17" value="" style="edgeStyle=orthogonalEdgeStyle;rounded=0;orthogonalLoop=1;jettySize=auto;html=1;" edge="1" parent="WIyWlLk6GJQsqaUBKTNV-1" source="frEjWSfTX_FWlfSujDzB-14" target="frEjWSfTX_FWlfSujDzB-16">
          <mxGeometry relative="1" as="geometry" />
        </mxCell>
        <mxCell id="frEjWSfTX_FWlfSujDzB-14" value="Yes load current level" style="rounded=0;whiteSpace=wrap;html=1;" vertex="1" parent="WIyWlLk6GJQsqaUBKTNV-1">
          <mxGeometry x="130" y="310" width="120" height="60" as="geometry" />
        </mxCell>
        <mxCell id="frEjWSfTX_FWlfSujDzB-19" value="" style="edgeStyle=orthogonalEdgeStyle;rounded=0;orthogonalLoop=1;jettySize=auto;html=1;" edge="1" parent="WIyWlLk6GJQsqaUBKTNV-1" source="frEjWSfTX_FWlfSujDzB-16" target="frEjWSfTX_FWlfSujDzB-18">
          <mxGeometry relative="1" as="geometry" />
        </mxCell>
        <mxCell id="frEjWSfTX_FWlfSujDzB-16" value="Display level introduction for currentLevel" style="rounded=0;whiteSpace=wrap;html=1;" vertex="1" parent="WIyWlLk6GJQsqaUBKTNV-1">
          <mxGeometry x="130" y="450" width="120" height="60" as="geometry" />
        </mxCell>
        <mxCell id="frEjWSfTX_FWlfSujDzB-21" value="" style="edgeStyle=orthogonalEdgeStyle;rounded=0;orthogonalLoop=1;jettySize=auto;html=1;" edge="1" parent="WIyWlLk6GJQsqaUBKTNV-1" source="frEjWSfTX_FWlfSujDzB-18" target="frEjWSfTX_FWlfSujDzB-20">
          <mxGeometry relative="1" as="geometry" />
        </mxCell>
        <mxCell id="frEjWSfTX_FWlfSujDzB-18" value="Load Obstacles, Collectibles, and Layout for the current level" style="rounded=0;whiteSpace=wrap;html=1;" vertex="1" parent="WIyWlLk6GJQsqaUBKTNV-1">
          <mxGeometry x="130" y="590" width="120" height="60" as="geometry" />
        </mxCell>
        <mxCell id="frEjWSfTX_FWlfSujDzB-23" value="" style="edgeStyle=orthogonalEdgeStyle;rounded=0;orthogonalLoop=1;jettySize=auto;html=1;" edge="1" parent="WIyWlLk6GJQsqaUBKTNV-1" source="frEjWSfTX_FWlfSujDzB-20" target="frEjWSfTX_FWlfSujDzB-22">
          <mxGeometry relative="1" as="geometry" />
        </mxCell>
        <mxCell id="frEjWSfTX_FWlfSujDzB-20" value="Set level environment theme" style="rounded=0;whiteSpace=wrap;html=1;" vertex="1" parent="WIyWlLk6GJQsqaUBKTNV-1">
          <mxGeometry x="330" y="590" width="120" height="60" as="geometry" />
        </mxCell>
        <mxCell id="frEjWSfTX_FWlfSujDzB-25" value="" style="edgeStyle=orthogonalEdgeStyle;rounded=0;orthogonalLoop=1;jettySize=auto;html=1;" edge="1" parent="WIyWlLk6GJQsqaUBKTNV-1" source="frEjWSfTX_FWlfSujDzB-22" target="frEjWSfTX_FWlfSujDzB-24">
          <mxGeometry relative="1" as="geometry" />
        </mxCell>
        <mxCell id="frEjWSfTX_FWlfSujDzB-27" value="" style="edgeStyle=orthogonalEdgeStyle;rounded=0;orthogonalLoop=1;jettySize=auto;html=1;" edge="1" parent="WIyWlLk6GJQsqaUBKTNV-1" source="frEjWSfTX_FWlfSujDzB-22" target="frEjWSfTX_FWlfSujDzB-26">
          <mxGeometry relative="1" as="geometry" />
        </mxCell>
        <mxCell id="frEjWSfTX_FWlfSujDzB-22" value="Level complete?" style="rounded=0;whiteSpace=wrap;html=1;" vertex="1" parent="WIyWlLk6GJQsqaUBKTNV-1">
          <mxGeometry x="330" y="730" width="120" height="60" as="geometry" />
        </mxCell>
        <mxCell id="frEjWSfTX_FWlfSujDzB-29" value="" style="edgeStyle=orthogonalEdgeStyle;rounded=0;orthogonalLoop=1;jettySize=auto;html=1;" edge="1" parent="WIyWlLk6GJQsqaUBKTNV-1" source="frEjWSfTX_FWlfSujDzB-24" target="frEjWSfTX_FWlfSujDzB-28">
          <mxGeometry relative="1" as="geometry" />
        </mxCell>
        <mxCell id="frEjWSfTX_FWlfSujDzB-24" value="No, proceed to gameplay loop" style="rounded=0;whiteSpace=wrap;html=1;" vertex="1" parent="WIyWlLk6GJQsqaUBKTNV-1">
          <mxGeometry x="530" y="730" width="120" height="60" as="geometry" />
        </mxCell>
        <mxCell id="frEjWSfTX_FWlfSujDzB-26" value="Yes, go to level completion" style="rounded=0;whiteSpace=wrap;html=1;" vertex="1" parent="WIyWlLk6GJQsqaUBKTNV-1">
          <mxGeometry x="130" y="730" width="120" height="60" as="geometry" />
        </mxCell>
        <mxCell id="frEjWSfTX_FWlfSujDzB-31" value="" style="edgeStyle=orthogonalEdgeStyle;rounded=0;orthogonalLoop=1;jettySize=auto;html=1;" edge="1" parent="WIyWlLk6GJQsqaUBKTNV-1" source="frEjWSfTX_FWlfSujDzB-28" target="frEjWSfTX_FWlfSujDzB-30">
          <mxGeometry relative="1" as="geometry" />
        </mxCell>
        <mxCell id="frEjWSfTX_FWlfSujDzB-28" value="Render game visuals (Player, Obstacle, UI)" style="rounded=0;whiteSpace=wrap;html=1;" vertex="1" parent="WIyWlLk6GJQsqaUBKTNV-1">
          <mxGeometry x="530" y="870" width="120" height="60" as="geometry" />
        </mxCell>
        <mxCell id="frEjWSfTX_FWlfSujDzB-33" value="" style="edgeStyle=orthogonalEdgeStyle;rounded=0;orthogonalLoop=1;jettySize=auto;html=1;" edge="1" parent="WIyWlLk6GJQsqaUBKTNV-1" source="frEjWSfTX_FWlfSujDzB-30" target="frEjWSfTX_FWlfSujDzB-32">
          <mxGeometry relative="1" as="geometry" />
        </mxCell>
        <mxCell id="frEjWSfTX_FWlfSujDzB-30" value="Handle player input" style="rounded=0;whiteSpace=wrap;html=1;" vertex="1" parent="WIyWlLk6GJQsqaUBKTNV-1">
          <mxGeometry x="530" y="1010" width="120" height="60" as="geometry" />
        </mxCell>
        <mxCell id="frEjWSfTX_FWlfSujDzB-37" value="" style="edgeStyle=orthogonalEdgeStyle;rounded=0;orthogonalLoop=1;jettySize=auto;html=1;" edge="1" parent="WIyWlLk6GJQsqaUBKTNV-1" source="frEjWSfTX_FWlfSujDzB-32" target="frEjWSfTX_FWlfSujDzB-36">
          <mxGeometry relative="1" as="geometry" />
        </mxCell>
        <mxCell id="frEjWSfTX_FWlfSujDzB-41" value="" style="edgeStyle=orthogonalEdgeStyle;rounded=0;orthogonalLoop=1;jettySize=auto;html=1;" edge="1" parent="WIyWlLk6GJQsqaUBKTNV-1" source="frEjWSfTX_FWlfSujDzB-32" target="frEjWSfTX_FWlfSujDzB-40">
          <mxGeometry relative="1" as="geometry" />
        </mxCell>
        <mxCell id="frEjWSfTX_FWlfSujDzB-32" value="Update obstacle positions" style="rounded=0;whiteSpace=wrap;html=1;" vertex="1" parent="WIyWlLk6GJQsqaUBKTNV-1">
          <mxGeometry x="330" y="1010" width="120" height="60" as="geometry" />
        </mxCell>
        <mxCell id="frEjWSfTX_FWlfSujDzB-39" value="" style="edgeStyle=orthogonalEdgeStyle;rounded=0;orthogonalLoop=1;jettySize=auto;html=1;" edge="1" parent="WIyWlLk6GJQsqaUBKTNV-1" source="frEjWSfTX_FWlfSujDzB-36" target="frEjWSfTX_FWlfSujDzB-38">
          <mxGeometry relative="1" as="geometry" />
        </mxCell>
        <mxCell id="frEjWSfTX_FWlfSujDzB-36" value="Obstacle off screen?" style="rounded=0;whiteSpace=wrap;html=1;" vertex="1" parent="WIyWlLk6GJQsqaUBKTNV-1">
          <mxGeometry x="130" y="1010" width="120" height="60" as="geometry" />
        </mxCell>
        <mxCell id="frEjWSfTX_FWlfSujDzB-38" value="Reset obstacle position" style="rounded=0;whiteSpace=wrap;html=1;" vertex="1" parent="WIyWlLk6GJQsqaUBKTNV-1">
          <mxGeometry x="130" y="1150" width="120" height="60" as="geometry" />
        </mxCell>
        <mxCell id="frEjWSfTX_FWlfSujDzB-43" value="" style="edgeStyle=orthogonalEdgeStyle;rounded=0;orthogonalLoop=1;jettySize=auto;html=1;" edge="1" parent="WIyWlLk6GJQsqaUBKTNV-1" source="frEjWSfTX_FWlfSujDzB-40" target="frEjWSfTX_FWlfSujDzB-42">
          <mxGeometry relative="1" as="geometry" />
        </mxCell>
        <mxCell id="frEjWSfTX_FWlfSujDzB-40" value="Player collides with obstacle" style="rounded=0;whiteSpace=wrap;html=1;" vertex="1" parent="WIyWlLk6GJQsqaUBKTNV-1">
          <mxGeometry x="330" y="1150" width="120" height="60" as="geometry" />
        </mxCell>
        <mxCell id="frEjWSfTX_FWlfSujDzB-42" value="Player collides with obstacle" style="rounded=0;whiteSpace=wrap;html=1;" vertex="1" parent="WIyWlLk6GJQsqaUBKTNV-1">
          <mxGeometry x="530" y="1150" width="120" height="60" as="geometry" />
        </mxCell>
      </root>
    </mxGraphModel>
  </diagram>
</mxfile>
